<?xml version="1.0" encoding="UTF-8" standalone="no"?>
<svg width="441px" height="111px" viewBox="0 0 441 111" version="1.1" xmlns="http://www.w3.org/2000/svg" xmlns:xlink="http://www.w3.org/1999/xlink" xmlns:sketch="http://www.bohemiancoding.com/sketch/ns">
    <!-- Generator: Sketch 3.3.2 (12043) - http://www.bohemiancoding.com/sketch -->
    <title>OUTPUT_DD_pfade</title>
    <desc>Created with Sketch.</desc>
    <defs></defs>
    <g id="Page-1" stroke="none" stroke-width="1" fill="none" fill-rule="evenodd" sketch:type="MSPage">
        <g id="OUTPUT_DD_pfade" sketch:type="MSLayerGroup" transform="translate(0.000000, 3.000000)">
            <path d="M38.314,66.127 C38.314,45.582 37.092,36.698 27.652,36.698 C18.213,36.698 16.991,45.582 16.991,66.127 C16.991,86.672 18.213,95.556 27.652,95.556 C37.092,95.556 38.314,86.672 38.314,66.127 L38.314,66.127 L38.314,66.127 Z M0,66.127 C0,44.915 0,24.704 27.652,24.704 C55.305,24.704 55.305,44.915 55.305,66.127 C55.305,87.116 55.305,107.55 27.652,107.55 C0,107.55 0,87.116 0,66.127 L0,66.127 L0,66.127 Z" id="Fill-1" fill="#FFFFFF" sketch:type="MSShapeGroup"></path>
            <path d="M122.825,26.036 L122.825,82.896 C122.825,94.89 116.051,107.55 95.617,107.55 C77.182,107.55 68.298,97.999 68.298,82.896 L68.298,26.036 L85.067,26.036 L85.067,81.785 C85.067,91.669 89.287,95.556 95.395,95.556 C102.725,95.556 106.056,90.67 106.056,81.785 L106.056,26.036 L122.825,26.036" id="Fill-2" fill="#FFFFFF" sketch:type="MSShapeGroup"></path>
            <path d="M184.238,26.036 L184.238,39.363 L165.581,39.363 L165.581,106.217 L148.812,106.217 L148.812,39.363 L130.155,39.363 L130.155,26.036 L184.238,26.036" id="Fill-3" fill="#FFFFFF" sketch:type="MSShapeGroup"></path>
            <path d="M208.892,61.24 L218.22,61.24 C223.218,61.24 226.66,55.799 226.66,50.468 C226.66,43.916 224.883,38.364 217.332,38.364 L208.892,38.364 L208.892,61.24 L208.892,61.24 Z M192.123,26.036 L222.329,26.036 C237.654,26.036 243.651,35.365 243.651,50.024 C243.651,59.13 240.986,73.567 221.33,73.567 L208.892,73.567 L208.892,106.217 L192.123,106.217 L192.123,26.036 L192.123,26.036 Z" id="Fill-4" fill="#FFFFFF" sketch:type="MSShapeGroup"></path>
            <path d="M307.952,26.036 L307.952,82.896 C307.952,94.89 301.178,107.55 280.743,107.55 C262.309,107.55 253.424,97.999 253.424,82.896 L253.424,26.036 L270.193,26.036 L270.193,81.785 C270.193,91.669 274.413,95.556 280.521,95.556 C287.851,95.556 291.183,90.67 291.183,81.785 L291.183,26.036 L307.952,26.036" id="Fill-5" fill="#FFFFFF" sketch:type="MSShapeGroup"></path>
            <path d="M369.364,26.036 L369.364,39.363 L350.708,39.363 L350.708,106.217 L333.938,106.217 L333.938,39.363 L315.281,39.363 L315.281,26.036 L369.364,26.036" id="Fill-6" fill="#FFFFFF" sketch:type="MSShapeGroup"></path>
            <path d="M410.002,53.89 C424.665,53.89 436.555,41.96 436.555,27.244 C436.555,12.53 424.665,0.6 410.002,0.6 C395.34,0.6 383.452,12.53 383.452,27.244 C383.452,41.96 395.34,53.89 410.002,53.89 L410.002,53.89 L410.002,53.89 Z" id="Stroke-7" stroke="#FFFFFF" stroke-width="7" sketch:type="MSShapeGroup"></path>
            <path d="M396.977,19.555 L399.528,19.332 C402.965,19.031 403.301,22.859 403.682,27.212 C404.199,33.135 403.807,35.446 400.796,35.709 L398.408,35.918 L396.977,19.555 L396.977,19.555 Z M393.783,39.982 L401.836,39.278 C410.277,38.538 408.993,30.276 408.676,26.643 C408.031,19.28 406.443,15.068 399.966,15.634 L391.719,16.356 L393.783,39.982 L393.783,39.982 Z M416.971,17.805 L419.522,17.583 C422.959,17.283 423.295,21.111 423.676,25.464 C424.192,31.388 423.801,33.696 420.789,33.959 L418.402,34.169 L416.971,17.805 L416.971,17.805 Z M413.779,38.232 L421.83,37.528 C430.271,36.791 428.987,28.527 428.671,24.895 C428.024,17.532 426.438,13.318 419.959,13.884 L411.712,14.606 L413.779,38.232 L413.779,38.232 Z" id="Fill-9" fill="#FFFFFF" sketch:type="MSShapeGroup"></path>
        </g>
    </g>
</svg>