<?xml version="1.0" encoding="UTF-8" standalone="no"?>
<svg width="186px" height="180px" viewBox="0 0 186 180" version="1.1" xmlns="http://www.w3.org/2000/svg" xmlns:xlink="http://www.w3.org/1999/xlink" xmlns:sketch="http://www.bohemiancoding.com/sketch/ns">
    <title>wuerfel</title>
    <desc>Created with Sketch.</desc>
    <defs></defs>
    <g id="wuerfel" sketch:type="MSLayerGroup" fill="#FFFFFF">
        <g sketch:type="MSShapeGroup">
            <path d="M62.2,38 L62.2,104.5 L119.8,71.3 L62.2,38 L62.2,38 Z" id="Shape"></path>
            <path d="M57.6331097,111.844047 L60.2,110.3 L63.1068174,112.024254 L119.8,144.8 L62.2348147,177.979933 L60.2,179.2 L57.6165978,177.664166 L0.6,144.8 L57.6331097,111.844047 Z" id="Shape_1_"></path>
            <path d="M125.9,1.22232354 L125.9,1.2 L183.5,34.5 L125.90339,67.698046 L123.9,69 L121.9,67.8 L121.9,1.3 L123.9,0.1 L125.9,1.22232354 L125.9,1.22232354 Z M64.3,34.5 L121.9,1.3 L121.9,67.8 L64.3,34.5 L64.3,34.5 Z" id="Shape_2_"></path>
            <path d="M125.9,75 L125.9,141.3 L183.5,108.1 C183.9,107.9 185.5,106.8 185.5,106.8 L185.5,104.5 L185.5,38 L127.9,71.2 L125.9,72.4 L125.9,75 L125.9,75 Z" id="Shape_3_"></path>
        </g>
    </g>
</svg>