<?xml version="1.0" encoding="UTF-8" standalone="no"?>
<svg width="186px" height="180px" viewBox="0 0 186 180" version="1.1" xmlns="http://www.w3.org/2000/svg" xmlns:xlink="http://www.w3.org/1999/xlink" xmlns:sketch="http://www.bohemiancoding.com/sketch/ns">
    <!-- Generator: Sketch 3.3.2 (12043) - http://www.bohemiancoding.com/sketch -->
    <title>Group</title>
    <desc>Created with Sketch.</desc>
    <defs></defs>
    <g id="Page-1" stroke="none" stroke-width="1" fill="none" fill-rule="evenodd" sketch:type="MSPage">
        <g id="Group" sketch:type="MSLayerGroup" fill="#FFFFFF">
            <path d="M62.2,38 L62.2,104.5 L119.8,71.3 L62.2,38 L62.2,38 Z" id="Shape" sketch:type="MSShapeGroup"></path>
            <path d="M0.6,144.8 L58.2,111.6 L58.2,178 L0.6,144.8 Z M62.2,111.5 L62.2,178 L119.8,144.8 L62.2,111.5 Z M60.2,110.3 L62.2,111.5 L62.2,178 L60.2,179.2 L58.2,178 L58.2,111.5 L60.2,110.3 Z" id="Shape" sketch:type="MSShapeGroup"></path>
            <path d="M64.3,34.5 L121.9,1.3 L121.9,67.8 L64.3,34.5 Z M125.9,1.2 L125.9,67.7 L183.5,34.5 L125.9,1.2 Z M123.9,0.1 L125.9,1.3 L125.9,67.8 L123.9,69 L121.9,67.8 L121.9,1.3 L123.9,0.1 Z" id="Shape" sketch:type="MSShapeGroup"></path>
            <path d="M125.9,74.9761606 L125.9,141.3 L183.5,108.1 L183.489927,108.094177 C183.852872,107.857394 185.5,106.781827 185.5,106.763791 C185.5,106.111996 185.499999,104.936305 185.499999,104.499997 L185.5,38 L127.9,71.2 L127.908118,71.2046931 L125.9,72.4049046 L125.9,74.9761606 Z" id="Shape" sketch:type="MSShapeGroup"></path>
        </g>
    </g>
</svg>